<?xml version="1.0" encoding="UTF-8"?>
<svg id="Layer_1" xmlns="http://www.w3.org/2000/svg" version="1.1" viewBox="0 0 503.45 89.85">
  <!-- Generator: Adobe Illustrator 29.3.0, SVG Export Plug-In . SVG Version: 2.1.0 Build 146)  -->
  <defs>
    <style>
      .st0 {
        fill: #f4e9e9;
      }
    </style>
  </defs>
  <polygon class="st0" points="0 2.38 64.29 2.38 64.29 39.75 45.49 21.32 0 66.34 0 2.38"/>
  <g>
    <path class="st0" d="M382.24,24.8c17.55,24.83,3.67,72.95-32.96,63.94-32.15-7.9-32.54-67.95,0-75.95,13.05-3.21,25.32,1.19,32.96,12ZM342.4,26.42c-14.05,13.93-10.93,52.45,12.54,54.51,26.49,2.32,32.05-35.56,19.38-52.18-7.55-9.9-23.02-11.15-31.92-2.33Z"/>
    <path class="st0" d="M497.76,12.68v8.62h-34.78l-3.6,18.93c16.37-12.13,40.02-3.7,43.58,16.73,2.88,16.49-7.38,30.71-24.04,32.62-14.57,1.67-30.45-6.79-30.58-22.76h9.36c-.09,6.84,5.68,12.03,11.94,13.59,10.26,2.55,20.98-2.3,24.1-12.68,6.45-21.48-21.99-34.28-34.94-15.97-.23.33-1.14,2.12-1.26,2.15-1.34.33-6.29-2.01-7.99-2.18l6.71-39.04h41.5Z"/>
    <path class="st0" d="M392.93,88.86c-.02-2.03,0-4.09.24-6.11,2.32-18.61,25.33-25.53,36.21-37.86,8.88-10.06,4.63-23.28-9.23-24.31-9.86-.73-16.31,3.64-18.85,13.15l-8.1-2.64c1.09-6.81,6.08-13.24,12.23-16.35,12.9-6.53,33.85-2.18,37.04,13.74,4.23,21.09-17.31,29.68-30.36,40.61-3.21,2.69-6.86,7.07-7.91,11.14h39.58v8.62h-50.86Z"/>
    <path class="st0" d="M293.38,55.56c8.03-5.89,20.26-12.46,17.92-24.48-2.04-10.52-15.16-12.29-23.68-9.06v-9.1c7.25-1.79,16.08-1.44,22.63,2.44,7.43,4.4,10.85,11.57,10.24,20.2-1.29,18.01-23.79,25.46-34.31,37.13-1.85,2.06-3.93,4.74-4.31,7.55h39.34v8.62h-50.62v-5.63c0-9.62,11.41-19.32,18.47-24.56,1.42-1.05,2.89-2.07,4.32-3.11Z"/>
  </g>
  <path class="st0" d="M163.48,34.48l9.24,17.97,9.47-17.97h6.12v28.03h-5.04v-19.64l-1.56,2.63-6.86,13.76c-.51.63-3.52.52-3.94.15l-8.51-16.53v19.64h-5.04v-28.03h6.12Z"/>
  <polygon class="st0" points="243.48 53.41 243.48 34.48 248.52 34.48 248.52 62.51 243.6 62.51 229.09 43.35 229.09 62.51 223.81 62.51 223.81 34.48 228.73 34.48 242.42 52.67 243.48 53.41"/>
  <path class="st0" d="M140.21,34.48c6.42.5,10.62,3.88,10.21,10.67-.23,3.67-2.12,6.67-5.53,8.13l5.99,9.23h-5.88l-5.04-8.15h-7.32v8.15h-5.28v-28.03c4.17.24,8.7-.32,12.83,0ZM132.66,49.57h8.28c.2,0,1.63-.55,1.93-.71,3.91-2.1,3.33-8.35-1.31-9.48-.3-.07-1.86-.35-2.05-.35h-6.84v10.54Z"/>
  <polygon class="st0" points="216.86 34.48 216.86 39.27 201.5 39.27 201.5 46.22 215.18 46.22 215.18 50.77 201.5 50.77 201.5 57.96 217.34 57.96 217.34 62.51 196.23 62.51 196.23 34.48 216.86 34.48"/>
  <path class="st0" d="M92.84,62.51l12.58-28.05,5.38.05,12.02,28h-5.64c-.83-.91-2.03-5.67-2.92-5.94-3.96.22-8.56-.45-12.44-.06-.29.03-.53-.01-.83.13-.89.43-1.77,4.98-2.76,5.87h-5.4ZM112.75,52.21l-4.55-11.15-.61-.59-4.68,11.74h9.84Z"/>
  <path class="st0" d="M293.38,55.56c-1.43,1.05-2.9,2.06-4.32,3.11-.35-.65-.5-2.01-1.32-2.16l-13.16.04c-.62.21-2.04,5.05-2.56,5.95h-5.52l12.39-28c1.09.11,4.84-.37,5.49.2l8.99,20.85ZM276.35,52.21h9.84l-4.68-11.74-5.15,11.74Z"/>
  <path class="st0" d="M104.83.22c3.03-.61,3.52,1.21,5.04,3.23,2.05,2.72,4.16,5.68,6.19,8.43,2.62,3.55,5.17,7.24,7.96,10.63V.22h2.64v26.59c-.86-.12-2.34.29-2.99-.24-4.83-6.53-9.44-13.23-14.32-19.72-.58-.77-1.18-1.81-1.99-2.32l.12,21.68c-.19,1.05-1.85.46-2.64.6V.22Z"/>
  <polygon class="st0" points="179.67 .22 179.67 2.62 164.56 2.62 164.56 12.2 178 12.2 178 14.36 164.56 14.36 164.56 24.42 180.15 24.42 180.15 26.82 161.92 26.82 161.92 .22 179.67 .22"/>
  <path class="st0" d="M203.42,2.14c-.89,3.43-1.89,1.68-4.19.95-3.03-.96-10.14-1.36-10.2,3.23-.08,6.05,10.83,5.24,13.68,9.11,1.63,2.21,2.19,5.98.24,8.15-3.92,4.35-10.92,4.05-15.66,1.27-2.05-1.2-3.18-1.84-1.25-4.02,3.1,2.89,7.9,4.48,12.07,3.18,1.35-.42,2.92-1.6,3.15-3.08,1.3-8.3-13.59-5.15-14.8-12.74-1.23-7.73,7.35-9.22,13.14-7.61,1.33.37,2.52,1.15,3.83,1.57Z"/>
  <rect class="st0" x="256.68" y="34.48" width="5.28" height="28.03"/>
  <path class="st0" d="M136.35,4.45c.03.07.3.11.36.28,2.58,6.3,4.88,12.73,7.57,18.98L153.64.46c.42-.5,2.08-.13,2.76-.23l-10.95,26.56c-.79-.03-2.21.34-2.71-.35L132.19.57c-.07-.48.02-.31.35-.35.45-.06,1.96-.08,2.29.12.52.31,1.23,3.36,1.53,4.11Z"/>
  <path class="st0" d="M228.13.22v2.4h-8.88v24.2c-.78-.14-2.44.45-2.64-.6l.24-23.6h-8.88V.22h20.15Z"/>
  <rect class="st0" x="77.24" y=".22" width="1.44" height="61.81"/>
  <rect class="st0" x="92.84" y=".22" width="2.64" height="26.59"/>
  <g>
    <path class="st0" d="M100.39,79.28c1.98.33,3.01,2.16,2.41,4.09-.21.67-1.35,1.26-1.3,1.74.04.41,1.65,2.34,1.4,2.56-2.36.63-1.92-1.4-2.85-2.24-.44-.39-1.78-.04-2.42-.16v2.4s-1.68,0-1.68,0v-8.38c1.36.16,3.14-.21,4.44,0ZM97.63,83.83c1.24-.08,3.65.51,3.84-1.34.22-2.24-2.37-1.77-3.84-1.77v3.12Z"/>
    <path class="st0" d="M162.4,79.28v1.44h-4.56v2.16h4.08v1.2h-4.08v2.16h4.44c.37,0,.42,1.1.36,1.44h-6.48v-8.38h6.24Z"/>
    <path class="st0" d="M116.1,79.28v1.44h-4.56v2.16h4.08v1.2h-4.08v2.16h4.44c.37,0,.42,1.1.36,1.44h-6.48v-8.38h6.24Z"/>
    <path class="st0" d="M130.98,87.66c-2.15.74-1.72-1.35-2.56-1.64-.3-.1-3.98-.15-4.13,0-.49.43.17,2.3-2.18,1.65l3.59-8.27c.54-.19,1.36-.27,1.81.13l3.47,8.15ZM127.86,84.55c.23-.22-1.13-3.35-1.32-3.35l-1.56,3.35h2.88Z"/>
    <path class="st0" d="M197.87,79.32c.38.24,3.13,7.28,3.4,8.34-1.89.67-1.7-1.43-2.31-1.64-.43-.14-4.03-.09-4.19.12-.77.98.25,1.92-2.13,1.53l3.38-8c.19-.49,1.56-.53,1.86-.34ZM197.18,81.2c-.43-.4-.4.15-.5.34-.16.32-1.3,2.9-1.18,3.01h2.88c-.18-.52-1-3.16-1.2-3.35Z"/>
    <path class="st0" d="M225.25,79.28v1.44h-4.56v2.16h4.08v1.2h-4.08v2.16h4.44c.37,0,.42,1.1.36,1.44h-6.24v-8.38h6Z"/>
    <path class="st0" d="M175.1,79.77c.11.12-.12,1.32-.25,1.4-.37.26-3.71-1.39-3.83.15-.16,1.93,4.89.94,4.32,4.53-.47,2.93-6.36,1.94-6.47.49-.03-.37.23-.71.25-1.08.29-.2,2.78,1.94,4.21.73,1.57-1.33-2.18-2.07-2.86-2.44-2.34-1.25-1.44-4.07,1.16-4.3.61-.05,3.15.13,3.48.5Z"/>
    <polygon class="st0" points="188.07 79.28 188.07 80.72 185.43 80.72 185.43 87.67 183.75 87.67 183.75 80.72 181.11 80.72 181.11 79.28 188.07 79.28"/>
    <path class="st0" d="M212.78,79.28v1.44s-2.64,0-2.64,0v6.95h-1.68v-6.95c0-.19-3.42.73-2.64-1.44h6.96Z"/>
    <polygon class="st0" points="138.89 79.28 138.89 86.23 142.49 86.23 142.49 87.67 137.21 87.67 137.21 79.28 138.89 79.28"/>
  </g>
  <g>
    <rect class="st0" x="35.98" y="51.97" width="6.72" height="6.71"/>
    <rect class="st0" x="35.98" y="44.06" width="6.72" height="6.47"/>
    <rect class="st0" x="44.38" y="51.97" width="6.48" height="6.71"/>
    <rect class="st0" x="44.38" y="44.06" width="6.48" height="6.47"/>
  </g>
</svg>