<?xml version="1.0" encoding="UTF-8"?>
<svg id="Layer_1" xmlns="http://www.w3.org/2000/svg" xmlns:xlink="http://www.w3.org/1999/xlink" version="1.1" viewBox="0 0 503.45 132.94">
  <!-- Generator: Adobe Illustrator 29.3.0, SVG Export Plug-In . SVG Version: 2.1.0 Build 146)  -->
  <defs>
    <style>
      .st0 {
        fill: url(#linear-gradient2);
      }

      .st1 {
        fill: url(#linear-gradient1);
      }

      .st2 {
        fill: url(#linear-gradient3);
      }

      .st3 {
        fill: url(#linear-gradient6);
      }

      .st4 {
        fill: url(#linear-gradient7);
      }

      .st5 {
        fill: url(#linear-gradient5);
      }

      .st6 {
        fill: url(#linear-gradient4);
      }

      .st7 {
        fill: url(#linear-gradient);
      }

      .st8 {
        fill: #a6113c;
      }

      .st9 {
        fill: #ae1341;
      }

      .st10 {
        fill: #fff;
      }

      .st11 {
        fill: #212e7e;
      }

      .st12 {
        fill: #fefefe;
      }
    </style>
    <linearGradient id="linear-gradient" x1="32.14" y1="58.99" x2="32.14" y2="9.82" gradientUnits="userSpaceOnUse">
      <stop offset="0" stop-color="#aa123e"/>
      <stop offset=".28" stop-color="#b51344"/>
      <stop offset=".57" stop-color="#bb1447"/>
      <stop offset="1" stop-color="#a3113a"/>
    </linearGradient>
    <linearGradient id="linear-gradient1" x1="172.84" y1="31.28" x2="172.84" y2="64.2" xlink:href="#linear-gradient"/>
    <linearGradient id="linear-gradient2" x1="236.17" y1="31.28" x2="236.17" y2="64.2" xlink:href="#linear-gradient"/>
    <linearGradient id="linear-gradient3" x1="139.13" y1="31.28" x2="139.13" y2="64.2" xlink:href="#linear-gradient"/>
    <linearGradient id="linear-gradient4" x1="206.78" y1="31.28" x2="206.78" y2="64.2" xlink:href="#linear-gradient"/>
    <linearGradient id="linear-gradient5" x1="107.83" y1="31.28" x2="107.83" y2="64.2" xlink:href="#linear-gradient"/>
    <linearGradient id="linear-gradient6" x1="279.95" y1="31.28" x2="279.95" y2="64.2" xlink:href="#linear-gradient"/>
    <linearGradient id="linear-gradient7" x1="259.32" y1="31.28" x2="259.32" y2="64.2" xlink:href="#linear-gradient"/>
  </defs>
  <polygon class="st9" points="0 107.07 501.22 107.07 501.36 107.91 0 108.03 0 107.07"/>
  <path class="st10" d="M0,121.45c1.97-.43,7.31.18,5.04,3.24-.32.43-.85.42-.96.83,2.35.46,2.31,3.28.24,4.2-1.36.61-2.87.29-4.32.36v-8.62ZM1.44,125.04c3.48.4,3.59-3,0-2.64v2.64ZM1.44,129.11c3.94.32,4.02-3.48,0-3.12v3.12Z"/>
  <path class="st10" d="M344.72,121.45c.51.1,1.77-.17,2.12.04.29.18,2.17,5.62,2.44,6.43.42.32,2.51-5.94,2.75-6.23.39-.46,1.45-.17,2.04-.24v8.62h-1.44v-6.47l-2.61,6.33c-.18.25-1.32.35-1.26-.19l-2.6-6.14v6.47h-1.44v-8.62Z"/>
  <path class="st10" d="M258.84,121.45c.51.1,1.77-.17,2.12.04.29.18,2.17,5.62,2.44,6.43.45.35,2.49-5.91,2.75-6.23.39-.46,1.45-.17,2.04-.24v8.62h-1.44v-6.47l-2.61,6.33c-.18.25-1.32.35-1.26-.19l-2.6-6.14v6.47h-1.44v-8.62Z"/>
  <polygon class="st7" points="0 2.38 64.29 2.38 64.29 39.75 45.49 21.32 0 66.34 0 2.38"/>
  <g>
    <path class="st11" d="M382.24,24.8c17.55,24.83,3.67,72.95-32.96,63.94-32.15-7.9-32.54-67.95,0-75.95,13.05-3.21,25.32,1.19,32.96,12ZM342.4,26.42c-14.05,13.93-10.93,52.45,12.54,54.51,26.49,2.32,32.05-35.56,19.38-52.18-7.55-9.9-23.02-11.15-31.92-2.33Z"/>
    <path class="st11" d="M497.76,12.68v8.62h-34.78l-3.6,18.93c16.37-12.13,40.02-3.7,43.58,16.73,2.88,16.49-7.38,30.71-24.04,32.62-14.57,1.67-30.45-6.79-30.58-22.76h9.36c-.09,6.84,5.68,12.03,11.94,13.59,10.26,2.55,20.98-2.3,24.1-12.68,6.45-21.48-21.99-34.28-34.94-15.97-.23.33-1.14,2.12-1.26,2.15-1.34.33-6.29-2.01-7.99-2.18l6.71-39.04h41.5Z"/>
    <path class="st11" d="M392.93,88.86c-.02-2.03,0-4.09.24-6.11,2.32-18.61,25.33-25.53,36.21-37.86,8.88-10.06,4.63-23.28-9.23-24.31-9.86-.73-16.31,3.64-18.85,13.15l-8.1-2.64c1.09-6.81,6.08-13.24,12.23-16.35,12.9-6.53,33.85-2.18,37.04,13.74,4.23,21.09-17.31,29.68-30.36,40.61-3.21,2.69-6.86,7.07-7.91,11.14h39.58v8.62h-50.86Z"/>
    <path class="st11" d="M293.38,55.56c8.03-5.89,20.26-12.46,17.92-24.48-2.04-10.52-15.16-12.29-23.68-9.06v-9.1c7.25-1.79,16.08-1.44,22.63,2.44,7.43,4.4,10.85,11.57,10.24,20.2-1.29,18.01-23.79,25.46-34.31,37.13-1.85,2.06-3.93,4.74-4.31,7.55h39.34v8.62h-50.62v-5.63c0-9.62,11.41-19.32,18.47-24.56,1.42-1.05,2.89-2.07,4.32-3.11Z"/>
  </g>
  <path class="st1" d="M163.48,34.48l9.24,17.97,9.47-17.97h6.12v28.03h-5.04v-19.64l-1.56,2.63-6.86,13.76c-.51.63-3.52.52-3.94.15l-8.51-16.53v19.64h-5.04v-28.03h6.12Z"/>
  <polygon class="st0" points="243.48 53.41 243.48 34.48 248.52 34.48 248.52 62.51 243.6 62.51 229.09 43.35 229.09 62.51 223.81 62.51 223.81 34.48 228.73 34.48 242.42 52.67 243.48 53.41"/>
  <path class="st2" d="M140.21,34.48c6.42.5,10.62,3.88,10.21,10.67-.23,3.67-2.12,6.67-5.53,8.13l5.99,9.23h-5.88l-5.04-8.15h-7.32v8.15h-5.28v-28.03c4.17.24,8.7-.32,12.83,0ZM132.66,49.57h8.28c.2,0,1.63-.55,1.93-.71,3.91-2.1,3.33-8.35-1.31-9.48-.3-.07-1.86-.35-2.05-.35h-6.84v10.54Z"/>
  <polygon class="st6" points="216.86 34.48 216.86 39.27 201.5 39.27 201.5 46.22 215.18 46.22 215.18 50.77 201.5 50.77 201.5 57.96 217.34 57.96 217.34 62.51 196.23 62.51 196.23 34.48 216.86 34.48"/>
  <path class="st5" d="M92.84,62.51l12.58-28.05,5.38.05,12.02,28h-5.64c-.83-.91-2.03-5.67-2.92-5.94-3.96.22-8.56-.45-12.44-.06-.29.03-.53-.01-.83.13-.89.43-1.77,4.98-2.76,5.87h-5.4ZM112.75,52.21l-4.55-11.15-.61-.59-4.68,11.74h9.84Z"/>
  <path class="st3" d="M293.38,55.56c-1.43,1.05-2.9,2.06-4.32,3.11-.35-.65-.5-2.01-1.32-2.16l-13.16.04c-.62.21-2.04,5.05-2.56,5.95h-5.52l12.39-28c1.09.11,4.84-.37,5.49.2l8.99,20.85ZM276.35,52.21h9.84l-4.68-11.74-5.15,11.74Z"/>
  <path class="st12" d="M104.83.22c3.03-.61,3.52,1.21,5.04,3.23,2.05,2.72,4.16,5.68,6.19,8.43,2.62,3.55,5.17,7.24,7.96,10.63V.22h2.64v26.59c-.86-.12-2.34.29-2.99-.24-4.83-6.53-9.44-13.23-14.32-19.72-.58-.77-1.18-1.81-1.99-2.32l.12,21.68c-.19,1.05-1.85.46-2.64.6V.22Z"/>
  <polygon class="st12" points="179.67 .22 179.67 2.62 164.56 2.62 164.56 12.2 178 12.2 178 14.36 164.56 14.36 164.56 24.42 180.15 24.42 180.15 26.82 161.92 26.82 161.92 .22 179.67 .22"/>
  <path class="st12" d="M203.42,2.14c-.89,3.43-1.89,1.68-4.19.95-3.03-.96-10.14-1.36-10.2,3.23-.08,6.05,10.83,5.24,13.68,9.11,1.63,2.21,2.19,5.98.24,8.15-3.92,4.35-10.92,4.05-15.66,1.27-2.05-1.2-3.18-1.84-1.25-4.02,3.1,2.89,7.9,4.48,12.07,3.18,1.35-.42,2.92-1.6,3.15-3.08,1.3-8.3-13.59-5.15-14.8-12.74s7.35-9.22,13.14-7.61c1.33.37,2.52,1.15,3.83,1.57Z"/>
  <rect class="st4" x="256.68" y="34.48" width="5.28" height="28.03"/>
  <path class="st12" d="M136.35,4.45c.03.07.3.11.36.28,2.58,6.3,4.88,12.73,7.57,18.98L153.64.46c.42-.5,2.08-.13,2.76-.23l-10.95,26.56c-.79-.03-2.21.34-2.71-.35L132.19.57c-.07-.48.02-.31.35-.35.45-.06,1.96-.08,2.29.12.52.31,1.23,3.36,1.53,4.11Z"/>
  <path class="st12" d="M228.13.22v2.4h-8.88v24.2c-.78-.14-2.44.45-2.64-.6l.24-23.6h-8.88V.22h20.15Z"/>
  <rect class="st12" x="77.24" y=".22" width="1.44" height="61.81"/>
  <rect class="st12" x="92.84" y=".22" width="2.64" height="26.59"/>
  <g>
    <path class="st12" d="M100.39,79.28c1.98.33,3.01,2.16,2.41,4.09-.21.67-1.35,1.26-1.3,1.74.04.41,1.65,2.34,1.4,2.56-2.36.63-1.92-1.4-2.85-2.24-.44-.39-1.78-.04-2.42-.16v2.4s-1.68,0-1.68,0v-8.38c1.36.16,3.14-.21,4.44,0ZM97.63,83.83c1.24-.08,3.65.51,3.84-1.34.22-2.24-2.37-1.77-3.84-1.77v3.12Z"/>
    <path class="st12" d="M162.4,79.28v1.44h-4.56v2.16h4.08v1.2h-4.08v2.16h4.44c.37,0,.42,1.1.36,1.44h-6.48v-8.38h6.24Z"/>
    <path class="st12" d="M116.1,79.28v1.44h-4.56v2.16h4.08v1.2h-4.08v2.16h4.44c.37,0,.42,1.1.36,1.44h-6.48v-8.38h6.24Z"/>
    <path class="st12" d="M130.98,87.66c-2.15.74-1.72-1.35-2.56-1.64-.3-.1-3.98-.15-4.13,0-.49.43.17,2.3-2.18,1.65l3.59-8.27c.54-.19,1.36-.27,1.81.13l3.47,8.15ZM127.86,84.55c.23-.22-1.13-3.35-1.32-3.35l-1.56,3.35h2.88Z"/>
    <path class="st12" d="M197.87,79.32c.38.24,3.13,7.28,3.4,8.34-1.89.67-1.7-1.43-2.31-1.64-.43-.14-4.03-.09-4.19.12-.77.98.25,1.92-2.13,1.53l3.38-8c.19-.49,1.56-.53,1.86-.34ZM197.18,81.2c-.43-.4-.4.15-.5.34-.16.32-1.3,2.9-1.18,3.01h2.88c-.18-.52-1-3.16-1.2-3.35Z"/>
    <path class="st12" d="M225.25,79.28v1.44h-4.56v2.16h4.08v1.2h-4.08v2.16h4.44c.37,0,.42,1.1.36,1.44h-6.24v-8.38h6Z"/>
    <path class="st12" d="M175.1,79.77c.11.12-.12,1.32-.25,1.4-.37.26-3.71-1.39-3.83.15-.16,1.93,4.89.94,4.32,4.53-.47,2.93-6.36,1.94-6.47.49-.03-.37.23-.71.25-1.08.29-.2,2.78,1.94,4.21.73,1.57-1.33-2.18-2.07-2.86-2.44-2.34-1.25-1.44-4.07,1.16-4.3.61-.05,3.15.13,3.48.5Z"/>
    <polygon class="st12" points="188.07 79.28 188.07 80.72 185.43 80.72 185.43 87.67 183.75 87.67 183.75 80.72 181.11 80.72 181.11 79.28 188.07 79.28"/>
    <path class="st12" d="M212.78,79.28v1.44s-2.64,0-2.64,0v6.95h-1.68v-6.95c0-.19-3.42.73-2.64-1.44h6.96Z"/>
    <polygon class="st12" points="138.89 79.28 138.89 86.23 142.49 86.23 142.49 87.67 137.21 87.67 137.21 79.28 138.89 79.28"/>
  </g>
  <g>
    <rect class="st8" x="35.98" y="51.97" width="6.72" height="6.71"/>
    <rect class="st8" x="35.98" y="44.06" width="6.72" height="6.47"/>
    <rect class="st8" x="44.38" y="51.97" width="6.48" height="6.71"/>
    <rect class="st8" x="44.38" y="44.06" width="6.48" height="6.47"/>
  </g>
  <path class="st10" d="M236.53,126c-.96.64-2.35,3.48-3.12,3.95-.34.21-1.31.22-1.68,0l3.33-4.36-3.09-4.15c2.39-.56,2.97,2.59,4.56,3.83v-3.83h1.44v3.83c1.61-1.11,2.24-4.25,4.56-3.83.4.34-2.97,3.37-2.89,4.18.09.86,2.97,3.4,3.37,4.44-.5-.09-1.49.17-1.87-.05-.55-.31-2.22-3.58-3.17-4.02v4.07h-1.44v-4.07Z"/>
  <path class="st10" d="M437.55,121.45c.59.07,1.65-.23,2.04.24.54.64,1.63,4.37,2.17,5.51.12.26-.02.61.46.48.42-.11,2.27-6.02,2.55-6.2s1.43.06,1.89-.03v8.62h-1.2v-6.23c-.56-.11-.38.06-.54.31-.83,1.32-1.45,4.75-2.22,5.68-.39.47-.96.34-1.27-.16-.72-1.14-1.31-3.59-1.97-4.98-.15-.32-.35-1.02-.72-1.08v6.47h-1.2v-8.62Z"/>
  <path class="st10" d="M204.86,121.45v7.43c0,.06,1.2-.06,1.2,0v3.59h-1.2s0-2.4,0-2.4h-6v2.4s-1.2,0-1.2,0v-3.59s.51.08.83-.24c1.21-1.14,1.67-5.55,2.04-7.19h4.32ZM203.66,122.64c-.38.06-2.08-.09-2.16,0-.05.05.01,1.11-.06,1.5-.31,1.62-.98,3.14-1.38,4.73h3.6v-6.23Z"/>
  <path class="st10" d="M381.18,121.45v6.47l4.13-6.42,1.87-.05v8.62h-1.44v-6.47c-1.57,1.16-2.97,5.21-4.2,6.23-.51.43-1.17.21-1.8.24v-8.62h1.44Z"/>
  <path class="st10" d="M306.33,121.45v6.47c.98-.72,3.58-6.1,4.13-6.42.38-.22,1.37.04,1.87-.05v8.62h-1.44v-6.47l-4.2,6.23c-.47.44-1.2.2-1.8.24v-8.62h1.44Z"/>
  <path class="st10" d="M221.89,121.45v6.47l4.13-6.42,1.87-.05v8.62h-1.44v-6.47c-1.57,1.16-2.97,5.21-4.2,6.23-.51.43-1.17.21-1.8.24v-8.62h1.44Z"/>
  <path class="st10" d="M159.76,121.45v6.47c1.33-1.04,3.12-5.48,4.18-6.25.53-.38,1.2-.2,1.82-.22v8.62h-1.44v-6.47l-4.2,6.23c-.47.44-1.2.2-1.8.24v-8.62h1.44Z"/>
  <path class="st10" d="M454.52,121.26c6.18-.97,7,9.96-.52,8.79-3.95-.61-4.18-8.05.52-8.79ZM454.76,122.45c-2.91.51-2.94,5.99-.29,6.41,4.93.79,4.15-7.09.29-6.41Z"/>
  <path class="st10" d="M393.17,121.45v6.23c.45.1.46-.15.68-.4.74-.85,3.33-5.58,3.69-5.78s1.18.03,1.63-.05v8.62h-1.2v-6.23c-.45-.1-.46.15-.68.4-.74.85-3.39,5.61-3.69,5.78-.35.2-1.18-.02-1.63.05v-8.62h1.2Z"/>
  <path class="st10" d="M114.19,121.45v6.23c.45.1.46-.15.68-.4.74-.85,3.33-5.58,3.69-5.78s1.18.03,1.63-.05v8.62h-1.2v-6.23c-.45-.1-.46.15-.68.4-1.33,1.53-2.58,4.04-3.68,5.79l-1.64.04v-8.62h1.2Z"/>
  <path class="st10" d="M149.39,121.27c1.48-.19,2.96.29,3.89,1.5,1.59,2.07.88,6.71-2.09,7.25-6.82,1.25-6.88-8.09-1.8-8.75ZM149.63,122.45c-3.32.48-3.32,7.43,1.33,6.37,2.48-.56,2.36-6.91-1.33-6.37Z"/>
  <path class="st10" d="M276.05,121.27c1.48-.19,2.96.29,3.89,1.5,1.59,2.07.88,6.71-2.09,7.25-6.82,1.25-6.88-8.09-1.8-8.75ZM276.29,122.45c-3.32.48-3.32,7.43,1.33,6.37,2.48-.56,2.36-6.91-1.33-6.37Z"/>
  <path class="st10" d="M248.04,121.45v6.23c.44.09.47-.13.68-.4,1.26-1.61,2.32-3.89,3.52-5.59.47-.44,1.2-.2,1.8-.24v8.62h-1.2v-6.47c-.56-.13-.4.11-.55.3-.91,1.16-3.09,5.39-3.87,5.94-.49.35-1.03.22-1.58.22v-8.62h1.2Z"/>
  <polygon class="st10" points="369.42 121.45 369.42 125.04 373.5 125.04 373.5 121.45 374.94 121.45 374.94 130.07 373.5 130.07 373.5 126.24 369.42 126.24 369.42 130.07 367.98 130.07 367.98 121.45 369.42 121.45"/>
  <polygon class="st10" points="136.02 121.45 136.02 125.04 140.09 125.04 140.09 121.45 141.53 121.45 141.53 130.07 140.09 130.07 140.09 126.24 136.02 126.24 136.02 130.07 134.58 130.07 134.58 121.45 136.02 121.45"/>
  <path class="st10" d="M56.97,121.45c1.26.25,1.93,1.69,1.43,2.87-.24.56-1.09.72-1.31,1.2,2.52.38,2.62,3.41.29,4.25-1.32.48-2.76.26-4.13.3v-8.62c1.11.15,2.69-.21,3.72,0ZM56.8,124.74c.86-.86.34-2.19-1.05-2.32-1.95-.18-1.15,1.19-1.29,2.62.61-.03,1.91.14,2.34-.3ZM54.45,128.87c.97-.02,2.72.32,3.08-.89.26-.89-.25-1.44-1.04-1.74-2.59-.97-2.01.72-2.03,2.63Z"/>
  <path class="st10" d="M488.05,121.45c1.94.35,2.18,3.3.12,3.95,0,.21,1.76.29,1.92,1.94.28,2.88-3.82,2.88-5.75,2.73v-8.62c1.13.14,2.65-.19,3.72,0ZM485.53,125.04c2.4.78,3.95-2.19,1.26-2.59-1.91-.28-1.12,1.23-1.26,2.59ZM485.53,128.87c1.16-.03,2.78.4,3.08-1.14.16-.81-.35-1.23-1.05-1.49-2.59-.97-2.01.72-2.03,2.63Z"/>
  <path class="st10" d="M214.1,121.45c2.1.42,2.07,3.05.36,4.07,1.91.24,2.29,2.74.84,3.84-1.3.99-3.38.66-4.92.71v-8.62c1.1.15,2.69-.21,3.72,0ZM211.58,125.04c2.4.88,4.1-2.23,1.54-2.62-2.16-.33-1.46,1.06-1.54,2.62ZM214.4,128.58c.41-.41.46-1.7-.05-2.12-.4-.33-2.33-.72-2.67-.24-.22.32-.21,2.56.12,2.78.44.31,2.26-.09,2.6-.43Z"/>
  <path class="st10" d="M108.19,121.45v8.62h-1.44v-7.43c-.5.1-1.8-.17-2.13.03-.49.3-.45,6.73-2.18,7.29-.55.18-1.13.1-1.69.11-.25-1.76.34-.89,1.1-1.42.96-.67,1.23-5.88,1.54-7.21h4.8Z"/>
  <path class="st10" d="M77.44,121.49c.39.24,2.65,7.55,3.16,8.58-2.14.69-1.72-1.72-2.19-2.13-.14-.12-3.45-.1-3.6.11-.65.92.08,2.47-2.13,2.01l2.99-8.39c.28-.31,1.49-.36,1.76-.19ZM77.96,126.71l-1.32-3.83-1.32,3.83h2.64Z"/>
  <path class="st10" d="M501.36,130.07c-2.21.45-1.48-1.09-2.13-2.01-.14-.2-3.38-.24-3.59-.11-.48.3-.07,2.85-2.19,2.12.52-1.03,2.77-8.34,3.15-8.59.24-.16,1.51-.11,1.77.2l2.99,8.39ZM498.72,126.71c-.34-1.11-.64-2.28-1.08-3.35-.09-.23-.02-.55-.35-.48l-1.2,3.83h2.64Z"/>
  <path class="st10" d="M327.89,121.48l2.91,8.59c-2.13.41-1.19-.75-1.94-1.77-.45-.62-3.4-.6-3.78.02-.64,1.05.13,2.15-1.96,1.76l2.9-8.24c.38-.59,1.25-.41,1.86-.35ZM327.2,123.12c-.4-.43-.41.16-.5.34-.23.44-1.16,3.03-.94,3.25h2.4c.13-.13-.84-3.46-.96-3.59Z"/>
  <path class="st10" d="M49.18,130.07c-2.09.49-1.46-1.03-2.13-2.01-.14-.21-3.46-.23-3.6-.11-.46.4-.04,2.82-2.19,2.13.58-1.02,2.77-8.34,3.15-8.59.24-.15,1.51-.12,1.77.2l3,8.39ZM46.54,126.71c.13-.12-.91-2.95-1.08-3.35-.09-.23-.02-.55-.35-.48l-1.2,3.83h2.64Z"/>
  <path class="st10" d="M475.45,121.45v3.83c.82-.43,2.46-3.51,2.93-3.78.36-.21,1.17.02,1.63-.05l-3.1,4.16,3.34,4.34c-2.38.87-3.2-2.78-4.8-3.95v4.07h-1.44v-8.62h1.44Z"/>
  <path class="st10" d="M64.77,121.45v3.83c.87-.42,2.46-3.51,2.93-3.78.36-.21,1.17.02,1.63-.05l-3.1,4.16,3.58,4.46c-.58-.06-1.4.17-1.92-.12-.68-.38-2.1-3.45-3.12-3.95v4.07h-1.44v-8.62h1.44Z"/>
  <polygon class="st10" points="178.71 121.45 178.71 125.04 183.03 125.04 183.03 121.45 184.23 121.45 184.23 130.07 183.03 130.07 183.03 126.24 178.71 126.24 178.71 130.07 177.52 130.07 177.52 121.45 178.71 121.45"/>
  <path class="st10" d="M95.71,125.28c.17-2.76-2.67-3.31-4.8-2.4-.39-1.51,1.04-1.73,2.27-1.68,3.65.15,5.3,4.17,3.54,7.12-1.08,1.82-2.76,1.93-4.7,1.72-1.16-.12-1.23-.2-1.1-1.41,2.21.54,4.96.53,4.8-2.4h-3.36s-.05-.96,0-.96h3.36Z"/>
  <path class="st10" d="M11.51,121.45v3.35c2.42-.22,5.45.82,4.19,3.83-.19.45-1.73,1.44-2.15,1.44h-3.48v-8.62h1.44ZM14.1,126.29c-.47-.47-1.92-.25-2.58-.3v2.88c.66-.05,2.11.17,2.58-.3.41-.41.4-1.88,0-2.28Z"/>
  <path class="st10" d="M338.6,121.45c.47.09,1.66,1.01,1.86,1.5,1.08,2.64-1.74,4.45-4.14,4.01v3.12s-1.44,0-1.44,0v-8.62c1.1.15,2.69-.21,3.72,0ZM336.32,125.76c3.95.59,3.89-3.67,0-3.35v3.35Z"/>
  <path class="st10" d="M363.67,121.45v1.2h-3.36v2.4c.92.21,3.11-.63,3.12.84,0,.57-.15.33-.59.36-.83.07-1.7-.05-2.53,0v2.64h3.36v1.2h-4.8v-8.62h4.8Z"/>
  <path class="st10" d="M29.26,122.88c-2.19-.55-4.79-.5-5.05,2.26-.16,1.71.31,3.51,2.28,3.73,1.07.12,3.57-.88,2.65.72-.35.61-2.68.57-3.37.48-3.91-.48-4.26-6.71-.69-8.36,1.34-.62,4.62-1.08,4.17,1.17Z"/>
  <path class="st10" d="M193.83,121.45v1.2h-3.36v2.4s3.12.14,3.12.14v1.06c-.66.11-2.69-.25-3.02.22-.19.27-.19,1.91,0,2.19.34.49,2.79.1,3.49.22v1.2h-4.8v-8.62h4.56Z"/>
  <path class="st10" d="M291.22,122.88c-2.88-1.1-5.88.46-5.11,3.79.58,2.52,3.06,2.62,5.11,1.72.17,1.24-.19,1.48-1.34,1.65-7.35,1.08-6.76-8.94-.7-8.86,1.19.02,2.39.24,2.04,1.69Z"/>
  <path class="st10" d="M469.69,122.88c-.17.18-3.1-1.33-4.52.88-1.14,1.78-.66,4.84,1.75,5.12,1.07.12,3.57-.88,2.65.72-.35.61-2.68.57-3.37.48-3.9-.48-4.22-6.73-.69-8.36,1.34-.62,4.62-1.08,4.17,1.17Z"/>
  <polygon class="st10" points="301.06 121.45 301.06 122.64 298.42 122.64 298.42 130.07 296.98 130.07 296.98 122.64 294.58 122.64 294.58 121.45 301.06 121.45"/>
  <polygon class="st10" points="130.74 121.45 130.74 122.64 128.1 122.64 128.1 130.07 126.66 130.07 126.66 122.64 124.26 122.64 124.26 121.45 130.74 121.45"/>
  <polygon class="st10" points="39.1 121.45 39.1 122.64 36.46 122.64 36.46 130.07 35.26 130.07 35.26 122.64 32.62 122.64 32.62 121.45 39.1 121.45"/>
  <rect class="st10" x="417.88" y="120.73" width=".96" height="12.22"/>
  <rect class="st10" x="17.03" y="121.45" width="1.2" height="8.62"/>
  <path class="st10" d="M160.93,118.61c.17.15-.02,1.1,1.14,1.16,1.03.05,1.12-1.09,1.46-1.2,1.41-.47.84,1.44-.39,1.81-1.48.45-3.37.02-3.13-1.81.26.04.77-.1.92.04Z"/>
</svg>